<svg id="Camada_1" data-name="Camada 1" xmlns="http://www.w3.org/2000/svg" viewBox="0 0 51.91 57.61"><defs><style>.cls-1{fill:#f3c300;}.cls-2{fill:#6abf4b;}.cls-3{fill:#6fcfeb;}.cls-4{fill:#00bed6;}.cls-5{fill:#d9d8d6;}.cls-6{fill:#ca8342;}.cls-7{fill:#003b4d;}</style></defs><path class="cls-1" d="M29.82,14.88H22.09A3.9,3.9,0,0,1,23.91,12L24,12A3.76,3.76,0,0,1,26,11.43a3.8,3.8,0,0,1,1.93.51L28,12a3.85,3.85,0,0,1,1.33,1.36A3.91,3.91,0,0,1,29.82,14.88Z"/><path class="cls-2" d="M47.78,14.6H37.14a3.74,3.74,0,0,0-1.42.28h-5a4.64,4.64,0,0,0-.42-1.55l7.8-4.51,8.78,5.07A4.74,4.74,0,0,1,47.78,14.6Z"/><path class="cls-3" d="M37.2,8.32l-7.38,4.26a4.89,4.89,0,0,0-1.13-1.14l3.48-6Z"/><path class="cls-3" d="M31.42,5,28,11a4.56,4.56,0,0,0-1.57-.42v-8a5.12,5.12,0,0,1,2,.64Z"/><path class="cls-3" d="M25.52,2.61v8A4.73,4.73,0,0,0,24,11L20.49,5l3-1.74A5.23,5.23,0,0,1,25.52,2.61Z"/><path class="cls-3" d="M23.22,11.44a4.57,4.57,0,0,0-1.14,1.14L14.71,8.32h0l3.46-2,1.57-.91Z"/><path class="cls-2" d="M21.64,13.33a4.87,4.87,0,0,0-.41,1.55H3.84a5.35,5.35,0,0,1,1.22-1l8.78-5.07.22.12h0Z"/><path class="cls-4" d="M13.69,36.54l-.06.06L12,38.19,9.31,40.91a2.52,2.52,0,0,1-1.55.64H3.07a4.9,4.9,0,0,1-.48-2.11V35.71L3,35.48a7,7,0,0,1,3.9-1.06,7,7,0,0,1,3.89,1.06A8.37,8.37,0,0,0,13.69,36.54Z"/><path class="cls-5" d="M49.31,18.17v2.27H46.39a3.67,3.67,0,0,0-2.42.92l-5.13,5.13c-1.73,1.72-3.75,3.75-5.84,5.84l-5.84,5.84-8.58,8.58a2.22,2.22,0,0,1-1.56.64H11.43L5.06,43.72a5.06,5.06,0,0,1-1-.73H7.76a4,4,0,0,0,2.53-1l0,0,2.75-2.74,1.58-1.59,4.07-4.06L25,27.29l4.93-4.94,5.67-5.67A2.19,2.19,0,0,1,37.14,16H48.83A5,5,0,0,1,49.31,18.17Z"/><path class="cls-4" d="M23.32,26.91l-5.63,5.62-3.22,3.22a7,7,0,0,1-3.24-1,7.91,7.91,0,0,0-4.3-1.16,7.92,7.92,0,0,0-4.31,1.16h0V28.2L3,28a7,7,0,0,1,3.9-1.06A7,7,0,0,1,10.82,28a7.85,7.85,0,0,0,4.3,1.16A7.85,7.85,0,0,0,19.42,28a7,7,0,0,1,3.9-1.06Z"/><path class="cls-4" d="M29,21.27l-.07.06-4.75,4.75c-.26,0-.53,0-.83,0A7.92,7.92,0,0,0,19,27.21a7,7,0,0,1-3.89,1.06,7,7,0,0,1-3.89-1.06,7.91,7.91,0,0,0-4.3-1.16,7.92,7.92,0,0,0-4.31,1.16l0,0V20.7L3,20.46a7.13,7.13,0,0,1,3.9-1.06,7.09,7.09,0,0,1,3.89,1.06,7.77,7.77,0,0,0,4.3,1.16,7.77,7.77,0,0,0,4.3-1.16,7.13,7.13,0,0,1,3.9-1.06,7.09,7.09,0,0,1,3.89,1.06A9.59,9.59,0,0,0,29,21.27Z"/><path class="cls-4" d="M34.48,15.75l-4.82,4.82a8.29,8.29,0,0,1-2-.86,7.81,7.81,0,0,0-4.3-1.17A7.82,7.82,0,0,0,19,19.71a7.06,7.06,0,0,1-3.89,1.06,7.06,7.06,0,0,1-3.89-1.06,7.81,7.81,0,0,0-4.3-1.17,7.82,7.82,0,0,0-4.31,1.17h0V18.17a4.91,4.91,0,0,1,.64-2.42Z"/><path class="cls-6" d="M49.31,21.87v4.7H40.79l4.13-4.14a2.23,2.23,0,0,1,1.47-.56Z"/><path class="cls-6" d="M49.31,27.43v5H35l4.91-4.91a.46.46,0,0,1,.07-.07Z"/><path class="cls-6" d="M49.31,33.27v5H29.11l4.9-4.9.08-.07Z"/><path class="cls-6" d="M49.31,39.1v.34a4.94,4.94,0,0,1-2.47,4.28l-.63.36H23.27l4.91-4.9.07-.08Z"/><path class="cls-6" d="M44.72,45l-8.63,5H15.81l-.66-.38-1.24-.71H17a3.65,3.65,0,0,0,2.58-1.07L22.41,45Z"/><path class="cls-6" d="M34.6,50.79l-6.18,3.56A4.83,4.83,0,0,1,26,55a4.88,4.88,0,0,1-2.47-.67L17.3,50.79Z"/><path class="cls-7" d="M48.14,11.65,29.72,1a7.52,7.52,0,0,0-7.53,0L3.77,11.65A7.54,7.54,0,0,0,0,18.17V39.44A7.54,7.54,0,0,0,3.77,46L22.19,56.6a7.52,7.52,0,0,0,7.53,0L48.14,46a7.56,7.56,0,0,0,3.77-6.52V18.17A7.56,7.56,0,0,0,48.14,11.65Zm-1.3,2.24a4.74,4.74,0,0,1,.94.71H37.14a3.74,3.74,0,0,0-1.42.28h-5a4.64,4.64,0,0,0-.42-1.55l7.8-4.51ZM37.2,8.32l-7.38,4.26a4.89,4.89,0,0,0-1.13-1.14l3.48-6ZM26.38,2.61a5.12,5.12,0,0,1,2,.64l3,1.74L28,11a4.56,4.56,0,0,0-1.57-.42Zm1.5,9.33L28,12a3.85,3.85,0,0,1,1.33,1.36,3.91,3.91,0,0,1,.5,1.51H22.09A3.9,3.9,0,0,1,23.91,12L24,12A3.76,3.76,0,0,1,26,11.43,3.8,3.8,0,0,1,27.88,11.94Zm-4.4-8.69a5.23,5.23,0,0,1,2-.64v8A4.73,4.73,0,0,0,24,11L20.49,5ZM14.71,8.32l3.46-2,1.57-.91,3.48,6a4.57,4.57,0,0,0-1.14,1.14L14.71,8.32ZM5.06,13.89l8.78-5.07.22.12h0l7.58,4.39a4.87,4.87,0,0,0-.41,1.55H3.84A5.35,5.35,0,0,1,5.06,13.89ZM2.59,18.17a4.91,4.91,0,0,1,.64-2.42H34.48l-4.82,4.82a8.29,8.29,0,0,1-2-.86,7.81,7.81,0,0,0-4.3-1.17A7.82,7.82,0,0,0,19,19.71a7.06,7.06,0,0,1-3.89,1.06,7.06,7.06,0,0,1-3.89-1.06,7.81,7.81,0,0,0-4.3-1.17,7.82,7.82,0,0,0-4.31,1.17h0Zm0,2.53L3,20.46a7.13,7.13,0,0,1,3.9-1.06,7.09,7.09,0,0,1,3.89,1.06,7.77,7.77,0,0,0,4.3,1.16,7.77,7.77,0,0,0,4.3-1.16,7.13,7.13,0,0,1,3.9-1.06,7.09,7.09,0,0,1,3.89,1.06,9.59,9.59,0,0,0,1.76.81l-.07.06-4.75,4.75c-.26,0-.53,0-.83,0A7.92,7.92,0,0,0,19,27.21a7,7,0,0,1-3.89,1.06,7,7,0,0,1-3.89-1.06,7.91,7.91,0,0,0-4.3-1.16,7.92,7.92,0,0,0-4.31,1.16l0,0Zm0,7.5L3,28a7,7,0,0,1,3.9-1.06A7,7,0,0,1,10.82,28a7.85,7.85,0,0,0,4.3,1.16A7.85,7.85,0,0,0,19.42,28a7,7,0,0,1,3.9-1.06h0l-5.63,5.62-3.22,3.22a7,7,0,0,1-3.24-1,7.91,7.91,0,0,0-4.3-1.16,7.92,7.92,0,0,0-4.31,1.16h0Zm.48,13.35a4.9,4.9,0,0,1-.48-2.11V35.71L3,35.48a7,7,0,0,1,3.9-1.06,7,7,0,0,1,3.89,1.06,8.37,8.37,0,0,0,2.87,1.06l-.06.06L12,38.19,9.31,40.91a2.52,2.52,0,0,1-1.55.64Zm25.35,12.8A4.83,4.83,0,0,1,26,55a4.88,4.88,0,0,1-2.47-.67L17.3,50.79H34.6Zm7.67-4.43H15.81l-.66-.38-1.24-.71H17a3.65,3.65,0,0,0,2.58-1.07L22.41,45H44.72ZM49.31,39.44a4.94,4.94,0,0,1-2.47,4.28l-.63.36H23.27l4.91-4.9.07-.08H49.31Zm0-1.2H29.11l4.9-4.9.08-.07H49.31Zm0-5.83H35l4.91-4.91a.46.46,0,0,1,.07-.07h9.38Zm0-5.84H40.79l4.13-4.14a2.23,2.23,0,0,1,1.47-.56h2.92Zm0-6.13H46.39a3.67,3.67,0,0,0-2.42.92l-5.13,5.13c-1.73,1.72-3.75,3.75-5.84,5.84l-5.84,5.84-8.58,8.58a2.22,2.22,0,0,1-1.56.64H11.43L5.06,43.72a5.06,5.06,0,0,1-1-.73H7.76a4,4,0,0,0,2.53-1l0,0,2.75-2.74,1.58-1.59,4.07-4.06L25,27.29l4.93-4.94,5.67-5.67A2.19,2.19,0,0,1,37.14,16H48.83a5,5,0,0,1,.48,2.14Z"/></svg>