<svg width="113" height="32" viewBox="0 0 113 32" fill="none" xmlns="http://www.w3.org/2000/svg">
<rect width="113" height="32" rx="16" fill="#003B4D"/>
<path d="M23.752 20H22.384L18.268 13.772V20H16.9V11.648H18.268L22.384 17.864V11.648H23.752V20ZM28.4164 20.108C27.7924 20.108 27.2284 19.968 26.7244 19.688C26.2204 19.4 25.8244 19 25.5364 18.488C25.2484 17.968 25.1044 17.368 25.1044 16.688C25.1044 16.016 25.2524 15.42 25.5484 14.9C25.8444 14.38 26.2484 13.98 26.7604 13.7C27.2724 13.42 27.8444 13.28 28.4764 13.28C29.1084 13.28 29.6804 13.42 30.1924 13.7C30.7044 13.98 31.1084 14.38 31.4044 14.9C31.7004 15.42 31.8484 16.016 31.8484 16.688C31.8484 17.36 31.6964 17.956 31.3924 18.476C31.0884 18.996 30.6724 19.4 30.1444 19.688C29.6244 19.968 29.0484 20.108 28.4164 20.108ZM28.4164 18.92C28.7684 18.92 29.0964 18.836 29.4004 18.668C29.7124 18.5 29.9644 18.248 30.1564 17.912C30.3484 17.576 30.4444 17.168 30.4444 16.688C30.4444 16.208 30.3524 15.804 30.1684 15.476C29.9844 15.14 29.7404 14.888 29.4364 14.72C29.1324 14.552 28.8044 14.468 28.4524 14.468C28.1004 14.468 27.7724 14.552 27.4684 14.72C27.1724 14.888 26.9364 15.14 26.7604 15.476C26.5844 15.804 26.4964 16.208 26.4964 16.688C26.4964 17.4 26.6764 17.952 27.0364 18.344C27.4044 18.728 27.8644 18.92 28.4164 18.92ZM35.7568 18.776L37.6288 13.388H39.0808L36.5608 20H34.9288L32.4208 13.388H33.8848L35.7568 18.776ZM42.9828 20.108C42.3588 20.108 41.7948 19.968 41.2908 19.688C40.7868 19.4 40.3908 19 40.1028 18.488C39.8148 17.968 39.6708 17.368 39.6708 16.688C39.6708 16.016 39.8188 15.42 40.1148 14.9C40.4108 14.38 40.8148 13.98 41.3268 13.7C41.8388 13.42 42.4108 13.28 43.0428 13.28C43.6748 13.28 44.2468 13.42 44.7588 13.7C45.2708 13.98 45.6748 14.38 45.9708 14.9C46.2668 15.42 46.4148 16.016 46.4148 16.688C46.4148 17.36 46.2628 17.956 45.9588 18.476C45.6548 18.996 45.2388 19.4 44.7108 19.688C44.1908 19.968 43.6148 20.108 42.9828 20.108ZM42.9828 18.92C43.3348 18.92 43.6628 18.836 43.9668 18.668C44.2788 18.5 44.5308 18.248 44.7228 17.912C44.9148 17.576 45.0108 17.168 45.0108 16.688C45.0108 16.208 44.9188 15.804 44.7348 15.476C44.5508 15.14 44.3068 14.888 44.0028 14.72C43.6988 14.552 43.3708 14.468 43.0188 14.468C42.6668 14.468 42.3388 14.552 42.0348 14.72C41.7388 14.888 41.5028 15.14 41.3268 15.476C41.1508 15.804 41.0628 16.208 41.0628 16.688C41.0628 17.4 41.2428 17.952 41.6028 18.344C41.9708 18.728 42.4308 18.92 42.9828 18.92ZM52.2404 11.66V16.976C52.2404 17.608 52.4044 18.084 52.7324 18.404C53.0684 18.724 53.5324 18.884 54.1244 18.884C54.7244 18.884 55.1884 18.724 55.5164 18.404C55.8524 18.084 56.0204 17.608 56.0204 16.976V11.66H57.3884V16.952C57.3884 17.632 57.2404 18.208 56.9444 18.68C56.6484 19.152 56.2524 19.504 55.7564 19.736C55.2604 19.968 54.7124 20.084 54.1124 20.084C53.5124 20.084 52.9644 19.968 52.4684 19.736C51.9804 19.504 51.5924 19.152 51.3044 18.68C51.0164 18.208 50.8724 17.632 50.8724 16.952V11.66H52.2404ZM61.5695 20.108C61.0495 20.108 60.5815 20.016 60.1655 19.832C59.7575 19.64 59.4335 19.384 59.1935 19.064C58.9535 18.736 58.8255 18.372 58.8095 17.972H60.2255C60.2495 18.252 60.3815 18.488 60.6215 18.68C60.8695 18.864 61.1775 18.956 61.5455 18.956C61.9295 18.956 62.2255 18.884 62.4335 18.74C62.6495 18.588 62.7575 18.396 62.7575 18.164C62.7575 17.916 62.6375 17.732 62.3975 17.612C62.1655 17.492 61.7935 17.36 61.2815 17.216C60.7855 17.08 60.3815 16.948 60.0695 16.82C59.7575 16.692 59.4855 16.496 59.2535 16.232C59.0295 15.968 58.9175 15.62 58.9175 15.188C58.9175 14.836 59.0215 14.516 59.2295 14.228C59.4375 13.932 59.7335 13.7 60.1175 13.532C60.5095 13.364 60.9575 13.28 61.4615 13.28C62.2135 13.28 62.8175 13.472 63.2735 13.856C63.7375 14.232 63.9855 14.748 64.0175 15.404H62.6495C62.6255 15.108 62.5055 14.872 62.2895 14.696C62.0735 14.52 61.7815 14.432 61.4135 14.432C61.0535 14.432 60.7775 14.5 60.5855 14.636C60.3935 14.772 60.2975 14.952 60.2975 15.176C60.2975 15.352 60.3615 15.5 60.4895 15.62C60.6175 15.74 60.7735 15.836 60.9575 15.908C61.1415 15.972 61.4135 16.056 61.7735 16.16C62.2535 16.288 62.6455 16.42 62.9495 16.556C63.2615 16.684 63.5295 16.876 63.7535 17.132C63.9775 17.388 64.0935 17.728 64.1015 18.152C64.1015 18.528 63.9975 18.864 63.7895 19.16C63.5815 19.456 63.2855 19.688 62.9015 19.856C62.5255 20.024 62.0815 20.108 61.5695 20.108ZM71.5677 13.388V20H70.1997V19.22C69.9837 19.492 69.6997 19.708 69.3477 19.868C69.0037 20.02 68.6357 20.096 68.2437 20.096C67.7237 20.096 67.2557 19.988 66.8397 19.772C66.4317 19.556 66.1077 19.236 65.8677 18.812C65.6357 18.388 65.5197 17.876 65.5197 17.276V13.388H66.8757V17.072C66.8757 17.664 67.0237 18.12 67.3197 18.44C67.6157 18.752 68.0197 18.908 68.5317 18.908C69.0437 18.908 69.4477 18.752 69.7437 18.44C70.0477 18.12 70.1997 17.664 70.1997 17.072V13.388H71.5677ZM72.9167 16.664C72.9167 16 73.0527 15.412 73.3247 14.9C73.6047 14.388 73.9807 13.992 74.4527 13.712C74.9327 13.424 75.4607 13.28 76.0367 13.28C76.5567 13.28 77.0087 13.384 77.3927 13.592C77.7847 13.792 78.0967 14.044 78.3287 14.348V13.388H79.7087V20H78.3287V19.016C78.0967 19.328 77.7807 19.588 77.3807 19.796C76.9807 20.004 76.5247 20.108 76.0127 20.108C75.4447 20.108 74.9247 19.964 74.4527 19.676C73.9807 19.38 73.6047 18.972 73.3247 18.452C73.0527 17.924 72.9167 17.328 72.9167 16.664ZM78.3287 16.688C78.3287 16.232 78.2327 15.836 78.0407 15.5C77.8567 15.164 77.6127 14.908 77.3087 14.732C77.0047 14.556 76.6767 14.468 76.3247 14.468C75.9727 14.468 75.6447 14.556 75.3407 14.732C75.0367 14.9 74.7887 15.152 74.5967 15.488C74.4127 15.816 74.3207 16.208 74.3207 16.664C74.3207 17.12 74.4127 17.52 74.5967 17.864C74.7887 18.208 75.0367 18.472 75.3407 18.656C75.6527 18.832 75.9807 18.92 76.3247 18.92C76.6767 18.92 77.0047 18.832 77.3087 18.656C77.6127 18.48 77.8567 18.224 78.0407 17.888C78.2327 17.544 78.3287 17.144 78.3287 16.688ZM77.7767 11.612L75.1247 12.92V11.912L77.7767 10.448V11.612ZM82.8735 14.348C83.0735 14.012 83.3375 13.752 83.6655 13.568C84.0015 13.376 84.3975 13.28 84.8535 13.28V14.696H84.5055C83.9695 14.696 83.5615 14.832 83.2815 15.104C83.0095 15.376 82.8735 15.848 82.8735 16.52V20H81.5055V13.388H82.8735V14.348ZM86.8069 12.512C86.5589 12.512 86.3509 12.428 86.1829 12.26C86.0149 12.092 85.9309 11.884 85.9309 11.636C85.9309 11.388 86.0149 11.18 86.1829 11.012C86.3509 10.844 86.5589 10.76 86.8069 10.76C87.0469 10.76 87.2509 10.844 87.4189 11.012C87.5869 11.18 87.6709 11.388 87.6709 11.636C87.6709 11.884 87.5869 12.092 87.4189 12.26C87.2509 12.428 87.0469 12.512 86.8069 12.512ZM87.4789 13.388V20H86.1109V13.388H87.4789ZM92.143 20.108C91.519 20.108 90.955 19.968 90.451 19.688C89.947 19.4 89.551 19 89.263 18.488C88.975 17.968 88.831 17.368 88.831 16.688C88.831 16.016 88.979 15.42 89.275 14.9C89.571 14.38 89.975 13.98 90.487 13.7C90.999 13.42 91.571 13.28 92.203 13.28C92.835 13.28 93.407 13.42 93.919 13.7C94.431 13.98 94.835 14.38 95.131 14.9C95.427 15.42 95.575 16.016 95.575 16.688C95.575 17.36 95.423 17.956 95.119 18.476C94.815 18.996 94.399 19.4 93.871 19.688C93.351 19.968 92.775 20.108 92.143 20.108ZM92.143 18.92C92.495 18.92 92.823 18.836 93.127 18.668C93.439 18.5 93.691 18.248 93.883 17.912C94.075 17.576 94.171 17.168 94.171 16.688C94.171 16.208 94.079 15.804 93.895 15.476C93.711 15.14 93.467 14.888 93.163 14.72C92.859 14.552 92.531 14.468 92.179 14.468C91.827 14.468 91.499 14.552 91.195 14.72C90.899 14.888 90.663 15.14 90.487 15.476C90.311 15.804 90.223 16.208 90.223 16.688C90.223 17.4 90.403 17.952 90.763 18.344C91.131 18.728 91.591 18.92 92.143 18.92Z" fill="white"/>
</svg>
