<svg width="18" height="12" viewBox="0 0 18 12" fill="none" xmlns="http://www.w3.org/2000/svg">
<path d="M1.20361 12H12.2036C12.7536 12 13.2036 11.55 13.2036 11C13.2036 10.45 12.7536 10 12.2036 10H1.20361C0.653613 10 0.203613 10.45 0.203613 11C0.203613 11.55 0.653613 12 1.20361 12ZM1.20361 7H9.20361C9.75361 7 10.2036 6.55 10.2036 6C10.2036 5.45 9.75361 5 9.20361 5H1.20361C0.653613 5 0.203613 5.45 0.203613 6C0.203613 6.55 0.653613 7 1.20361 7ZM0.203613 1C0.203613 1.55 0.653613 2 1.20361 2H12.2036C12.7536 2 13.2036 1.55 13.2036 1C13.2036 0.45 12.7536 0 12.2036 0H1.20361C0.653613 0 0.203613 0.45 0.203613 1ZM17.5036 8.88L14.6236 6L17.5036 3.12C17.8936 2.73 17.8936 2.1 17.5036 1.71C17.1136 1.32 16.4836 1.32 16.0936 1.71L12.5036 5.3C12.1136 5.69 12.1136 6.32 12.5036 6.71L16.0936 10.3C16.4836 10.69 17.1136 10.69 17.5036 10.3C17.8836 9.91 17.8936 9.27 17.5036 8.88Z" fill="#B8BFCC"/>
</svg>
